<svg id="Layer_1" data-name="Layer 1" xmlns="http://www.w3.org/2000/svg" viewBox="0 0 46.55575 46.20831"><defs><style>.cls-1{fill:#1d1d1b;}.cls-2{fill:none;stroke:#1d1d1b;stroke-linecap:round;stroke-linejoin:round;}</style></defs><path class="cls-1" d="M18.20943,22.33594c.05707-.12159.11536-.24244.17212-.36444l.22552-.48066a1.42471,1.42471,0,0,0,.10468-.306,1.321,1.321,0,0,0-.05145-.74585l1.348-2.21386,1.37268,3.84552a.74787.74787,0,0,1,.02905.26153H23.0046l1.09674-.6615.53949.6615h.913l2.08447-1.70093,1.02985,1.26349-.04626.44123h.597l.40289-3.97065a.47566.47566,0,0,0-.10839-.35559.431.431,0,0,0-.30664-.17218l-6.15052-.62439h-.00122a.442.442,0,0,0-.34442.10529.48945.48945,0,0,0-.1778.32709l-.45916,4.52612a1.36363,1.36363,0,0,0-.05408-.33142l-.394-1.10266a.29432.29432,0,0,0-.01923-.10156l-1.014-2.79249a.15465.15465,0,0,0-.03588-.06317,1.49767,1.49767,0,0,0-1.85962-.78051l-5.42524,1.96423-.758.27441-.40765.14746a1.43753,1.43753,0,0,0-.85669,1.84845l.51489,1.39435.62158-.27728-.4743-1.28308,2.47155.84.00434.02228a.66555.66555,0,0,0,.04773.166,1.37574,1.37574,0,0,0,.169.23932h1.20569l-.41577-.1922a.66545.66545,0,0,1-.3457-.33826.679.679,0,0,1,.28619-.87091.67062.67062,0,0,1,.09168-.04211.70442.70442,0,0,1,.687.13623l.09289.08056.00373-.00372a.27652.27652,0,0,0,.30969.01611.33733.33733,0,0,0,.20013-.27136.66822.66822,0,0,1,.14124-.36542.67273.67273,0,0,1,1.04248-.02234.62271.62271,0,0,1,.14435.58228.77051.77051,0,0,1-.05512.15613l-.22613.48437q-.15262.32538-.30762.65064h.75061m.016-2.48792a1.29312,1.29312,0,0,0-1.16827-.25891,1.3084,1.3084,0,0,0-.726.46954,1.33446,1.33446,0,0,0-.14434.223,1.322,1.322,0,0,0-1.81745.90435L11.93807,20.361a.75639.75639,0,0,1,.3847-.33081l6.60578-2.39227a.78651.78651,0,0,1,.61755.04083Zm10.52942,1.2204-1.03229-1.26477-2.63269,2.147-.85418-1.04809-1.52924.92077.41235-4.00067,5.89405.59717Zm5.48032,1.66184.29977-1.56638a.30069.30069,0,0,0-.0097-.12537c-.00226-.009.00464-.01733.00146-.0263L34.523,21.008a.30406.30406,0,0,0-.09-.13293l-.73047-.69128-.65838-.49463-.48853-.41712a.30609.30609,0,0,0-.30035-.05578l-2.327.82312a.30614.30614,0,0,0-.19836.233l-.38111,2.0636.62824-.0282.25665-1.37378.52734.48865-.16954.91333H31.439l-.00024-.00043-.19251-.16364.129-.69226.66333-.23486.53436.45825-.11663.63294H33.073l.09753-.52234.67267-.23651-.21817,1.12516ZM32.96254,21.238l-.45447-.3913.09021-.73438,1.03968.888Zm-1.04486-.598-.79834.28156-.50812-.47083,1.38947-.49041Z"/><path class="cls-1" d="M24.81246,18.33557a1.211,1.211,0,0,0-.92359.27753,1.26014,1.26014,0,0,0,.66962,2.23,1.10193,1.10193,0,0,0,.127.00744,1.26428,1.26428,0,0,0,1.2544-1.1336,1.26173,1.26173,0,0,0-1.12738-1.38135Zm-.12763,1.92523c-.02228,0-.04461-.00122-.0675-.0025a.67287.67287,0,0,1-.59967-.7359.67309.67309,0,0,1,.66839-.60455c.02234,0,.04462.00122.0669.00244a.672.672,0,0,1-.06812,1.34051Z"/><path class="cls-2" d="M30.52673,34.9912H13.38157A1.41732,1.41732,0,0,1,11.96893,33.689l-.76907-9.4403a1.41732,1.41732,0,0,1,1.41264-1.53241H33.08464a1.41733,1.41733,0,0,1,1.41265,1.53241l-.50572,6.20766"/><path class="cls-2" d="M20.1105,23.01061v3.10647h.01813a2.72505,2.72505,0,0,0,5.43988,0h.01813V23.01061"/><circle class="cls-2" cx="22.79648" cy="25.02264" r="0.81672"/><line class="cls-2" x1="22.79648" y1="25.83935" x2="22.79648" y2="26.69091"/><path class="cls-2" d="M34.90362,15.56032a.39734.39734,0,0,0,.03687-.16523v-.40344a4.8411,4.8411,0,0,0-4.836-4.836H15.60022a4.84107,4.84107,0,0,0-4.84357,4.836v.40344a.392.392,0,0,0,.05029.18323"/><path class="cls-2" d="M25.58664,15.17906v-.45188h-.01813a2.72505,2.72505,0,0,0-5.43988,0H20.1105v.45188"/><line class="cls-2" x1="10.80694" y1="15.57832" x2="34.90362" y2="15.57832"/><path class="cls-2" d="M27.75018,10.15565a4.147,4.147,0,0,1,4.36634,4.523v.50356"/><path class="cls-2" d="M13.58063,15.18226V14.6787a4.14995,4.14995,0,0,1,4.36645-4.523"/><line class="cls-2" x1="10.80694" y1="15.57832" x2="12.51363" y2="19.23846"/><line class="cls-2" x1="34.90362" y1="15.57832" x2="32.95665" y2="19.47832"/></svg>