<?xml version="1.0" encoding="utf-8"?>
<!-- Generator: Adobe Illustrator 25.2.3, SVG Export Plug-In . SVG Version: 6.00 Build 0)  -->
<svg version="1.1" id="Layer_1" xmlns="http://www.w3.org/2000/svg" xmlns:xlink="http://www.w3.org/1999/xlink" x="0px" y="0px"
	 viewBox="0 0 46.6 46.2" style="enable-background:new 0 0 46.6 46.2;" xml:space="preserve">
<style type="text/css">
	.st0{fill:none;stroke:#1D1D1B;stroke-linecap:round;stroke-linejoin:round;}
</style>
<polyline class="st0" points="9.3,26.8 9.3,16.7 22,16.7 22,29.4 11.4,29.4 "/>
<polyline class="st0" points="24.3,12.7 15.7,12.7 15.7,16.7 "/>
<polyline class="st0" points="24.5,33.4 15.6,33.4 15.6,29.4 "/>
<path class="st0" d="M27.7,11.1h1.2c0.3,0,0.6,0.3,0.6,0.6l0,0v2.8c0,0.3-0.3,0.6-0.6,0.6h-4c-0.3,0-0.6-0.3-0.6-0.6l0,0v-3.6
	c0-0.3,0.1-0.7,0.5-0.7h1.6C26.9,10.3,27.3,11.1,27.7,11.1z"/>
<path class="st0" d="M34.2,17.6h1.2c0.3,0,0.6,0.3,0.6,0.6V21c0,0.3-0.3,0.6-0.6,0.6h-4c-0.3,0-0.6-0.3-0.6-0.6v-3.6
	c0-0.3,0.1-0.7,0.5-0.7h1.6C33.5,16.7,33.9,17.6,34.2,17.6z"/>
<path class="st0" d="M34.2,25.1h1.2c0.3,0,0.6,0.3,0.6,0.6v2.7c0,0.3-0.3,0.6-0.6,0.6h-4c-0.3,0-0.6-0.3-0.6-0.6v-3.6
	c0-0.3,0.1-0.7,0.5-0.7h1.6C33.5,24.1,33.9,25.1,34.2,25.1z"/>
<path class="st0" d="M27.9,31.9h1.2c0.3,0,0.6,0.3,0.6,0.6v2.8c0,0.3-0.3,0.6-0.6,0.6h-4c-0.3,0-0.6-0.3-0.6-0.6v-3.6
	c0-0.3,0.1-0.7,0.5-0.7h1.6C27.2,31.1,27.6,31.9,27.9,31.9z"/>
<line class="st0" x1="22" y1="18.9" x2="30.8" y2="18.9"/>
<line class="st0" x1="22" y1="26.5" x2="30.8" y2="26.5"/>
</svg>
